<svg xmlns="http://www.w3.org/2000/svg" width="20" height="23" viewBox="0 0 20 23">
  <metadata><?xpacket begin="﻿" id="W5M0MpCehiHzreSzNTczkc9d"?>
<x:xmpmeta xmlns:x="adobe:ns:meta/" x:xmptk="Adobe XMP Core 5.6-c138 79.159824, 2016/09/14-01:09:01        ">
   <rdf:RDF xmlns:rdf="http://www.w3.org/1999/02/22-rdf-syntax-ns#">
      <rdf:Description rdf:about=""/>
   </rdf:RDF>
</x:xmpmeta>
                                                                                                    
                                                                                                    
                                                                                                    
                                                                                                    
                                                                                                    
                                                                                                    
                                                                                                    
                                                                                                    
                                                                                                    
                                                                                                    
                                                                                                    
                                                                                                    
                                                                                                    
                                                                                                    
                                                                                                    
                                                                                                    
                                                                                                    
                                                                                                    
                                                                                                    
                                                                                                    
                           
<?xpacket end="w"?></metadata>
<defs>
    <style>
      .cls-1 {
        fill: #fff;
        fill-rule: evenodd;
      }
    </style>
  </defs>
  <path id="clipboard_w_tick" data-name="clipboard w tick" class="cls-1" d="M877.482,875.969h14.823a1.483,1.483,0,0,1,1.483,1.485v16.33a1.484,1.484,0,0,1-1.483,1.485H877.482A1.483,1.483,0,0,1,876,893.784v-16.33A1.483,1.483,0,0,1,877.482,875.969Zm14.082,9.65a5.939,5.939,0,1,1-5.929,5.938A5.934,5.934,0,0,1,891.564,885.619Zm0,1.491a4.448,4.448,0,1,1-4.44,4.447A4.444,4.444,0,0,1,891.564,887.11Zm2.719,4.1-2.843,2.373a0.831,0.831,0,0,1-.331.157,0.635,0.635,0,0,1-.224.037,0.9,0.9,0,0,1-.582-0.194,0.622,0.622,0,0,1-.2-0.337l-0.581-.582a0.653,0.653,0,0,1,.923-0.924l0.424,0.424,2.28-1.9a0.921,0.921,0,0,1,1.137,0A0.6,0.6,0,0,1,894.283,891.206Zm-12.477-16.722h6.176a0.984,0.984,0,0,1,.618,1.113v2.227a0.985,0.985,0,0,1-.618,1.114h-6.176a0.984,0.984,0,0,1-.618-1.114V875.6A0.983,0.983,0,0,1,881.806,874.484Zm5.311,3.711H882.67a0.741,0.741,0,0,1-.741-0.741v-1.485a0.742,0.742,0,0,1,.741-0.743h0.045a1.577,1.577,0,0,1-.045-0.371,2.26,2.26,0,0,1,4.447,0,1.526,1.526,0,0,1-.045.371h0.045a0.742,0.742,0,0,1,.741.743v1.485A0.741,0.741,0,0,1,887.117,878.2Zm-2.964-3.711h1.482v1.485h-1.482v-1.485Z" transform="translate(-876 -873)"/>
</svg>
