<svg xmlns="http://www.w3.org/2000/svg" width="26" height="22" viewBox="0 0 26 22">
  <metadata><?xpacket begin="﻿" id="W5M0MpCehiHzreSzNTczkc9d"?>
<x:xmpmeta xmlns:x="adobe:ns:meta/" x:xmptk="Adobe XMP Core 5.6-c138 79.159824, 2016/09/14-01:09:01        ">
   <rdf:RDF xmlns:rdf="http://www.w3.org/1999/02/22-rdf-syntax-ns#">
      <rdf:Description rdf:about=""/>
   </rdf:RDF>
</x:xmpmeta>
                                                                                                    
                                                                                                    
                                                                                                    
                                                                                                    
                                                                                                    
                                                                                                    
                                                                                                    
                                                                                                    
                                                                                                    
                                                                                                    
                                                                                                    
                                                                                                    
                                                                                                    
                                                                                                    
                                                                                                    
                                                                                                    
                                                                                                    
                                                                                                    
                                                                                                    
                                                                                                    
                           
<?xpacket end="w"?></metadata>
<defs>
    <style>
      .cls-1 {
        fill: #fff;
        fill-rule: evenodd;
      }
    </style>
  </defs>
  <path id="like_plus_copy" data-name="like plus copy" class="cls-1" d="M1292.43,884.228a6.46,6.46,0,0,0-4.08,11.5c-1.91,1.4-3.35,2.281-3.35,2.281s-13-7.93-13-14.32c0-3.85,2.4-7.7,6.96-7.7,4.18,0,6.04,3.937,6.04,3.937a6.712,6.712,0,0,1,6.04-3.937c4.41,0,6.88,3.772,6.88,7.7a6.581,6.581,0,0,1-.66,2.687A6.492,6.492,0,0,0,1292.43,884.228Zm0,0.924a5.543,5.543,0,1,1-5.57,5.543A5.554,5.554,0,0,1,1292.43,885.152Zm-2.79,6.466h1.86v1.849h1.86v-1.849h1.85v-1.847h-1.85v-1.848h-1.86v1.848h-1.86v1.847Z" transform="translate(-1272 -876)"/>
</svg>
