<svg xmlns="http://www.w3.org/2000/svg" width="21" height="26" viewBox="0 0 21 26">
  <metadata><?xpacket begin="﻿" id="W5M0MpCehiHzreSzNTczkc9d"?>
<x:xmpmeta xmlns:x="adobe:ns:meta/" x:xmptk="Adobe XMP Core 5.6-c138 79.159824, 2016/09/14-01:09:01        ">
   <rdf:RDF xmlns:rdf="http://www.w3.org/1999/02/22-rdf-syntax-ns#">
      <rdf:Description rdf:about=""/>
   </rdf:RDF>
</x:xmpmeta>
                                                                                                    
                                                                                                    
                                                                                                    
                                                                                                    
                                                                                                    
                                                                                                    
                                                                                                    
                                                                                                    
                                                                                                    
                                                                                                    
                                                                                                    
                                                                                                    
                                                                                                    
                                                                                                    
                                                                                                    
                                                                                                    
                                                                                                    
                                                                                                    
                                                                                                    
                                                                                                    
                           
<?xpacket end="w"?></metadata>
<defs>
    <style>
      .cls-1 {
        fill: #fff;
        fill-rule: evenodd;
      }
    </style>
  </defs>
  <path class="cls-1" d="M1295.01,1262.86a0.656,0.656,0,0,0-.6-0.39h-2.07a1.737,1.737,0,0,1-1.01-.22,8.271,8.271,0,0,1-1.19-1.42l-0.54-.74c-0.7-.93-1.08-1.43-1.33-1.72l-3.58-3.87-0.89-3.99a0.706,0.706,0,0,0-.3-0.42,0.649,0.649,0,0,0-.49-0.08l-0.21.06a3.811,3.811,0,0,0-3.32,4,7.6,7.6,0,0,0,1.06,3.2l0.31,0.54a10.7,10.7,0,0,1,1,3.05h-0.15a9.736,9.736,0,0,0-4.8,1.03,3.265,3.265,0,0,0-1.9,2.89,3.92,3.92,0,0,0,1,2.61,2.7,2.7,0,0,0-.37,1.28,2.206,2.206,0,0,0,.47,1.44,2.555,2.555,0,0,0,1.11.74,2.368,2.368,0,0,0-.02.35,2.168,2.168,0,0,0,2.1,2.31,0.375,0.375,0,0,0-.01.1c0,1.09.55,2.39,3.19,2.39h0.76a0.658,0.658,0,0,0,.3-0.07l0.52-.27a8.733,8.733,0,0,0,2.26.34c0.24,0,.59-0.02,1.06-0.05a0.794,0.794,0,0,0,.22-0.06,13.284,13.284,0,0,0,4.35-3.4h2.56a0.661,0.661,0,0,0,.61-0.42,12.762,12.762,0,0,0,.88-4.6A11.47,11.47,0,0,0,1295.01,1262.86Zm-8.38,11.67,0.92-.41a0.706,0.706,0,0,0,.35-0.39,0.672,0.672,0,0,0-.04-0.52,5.769,5.769,0,0,0-1.16-1.55l0.44-.21a0.68,0.68,0,0,0,.35-0.41,0.7,0.7,0,0,0-.07-0.53,5.94,5.94,0,0,0-1.15-1.4,0.618,0.618,0,0,0,.32-0.37,0.63,0.63,0,0,0-.03-0.52,4.494,4.494,0,0,0-1.4-1.65,0.691,0.691,0,0,0,.2-0.3,0.648,0.648,0,0,0-.04-0.51,4.046,4.046,0,0,0-3.78-2.41,4.6,4.6,0,0,0-1.11.15,7.175,7.175,0,0,0-1.25.43l-0.73.01a0.641,0.641,0,0,0-.59.4,0.66,0.66,0,0,0,.12.7l0.26,0.28a0.637,0.637,0,0,0,.5.21l0.7-.03a0.785,0.785,0,0,0,.22-0.05c0.5-.21.89-0.35,1.21-0.45a3.152,3.152,0,0,1,.83-0.14,2.117,2.117,0,0,1,1.72.82l-3.18,1.45-1.15-.01a2.412,2.412,0,0,1-1.79-.72,2.261,2.261,0,0,1-.73-1.74c0-.46.14-1.13,1.39-1.63a13.306,13.306,0,0,1,4.6-.61h0.35a0.649,0.649,0,0,0,.65-0.65,0.528,0.528,0,0,0-.01-0.13v-0.07a9.948,9.948,0,0,0-1.59-5.1v-0.01l-0.25-.44a3.868,3.868,0,0,1-.63-1.95,2.266,2.266,0,0,1,.43-1.4,2.647,2.647,0,0,1,1.04-.77l0.7,3.27a0.661,0.661,0,0,0,.16.31l3.88,4.18c0.71,0.9,1.19,1.52,1.5,1.95,1.31,1.87,1.84,2.12,2.01,2.2a7.694,7.694,0,0,0,3.02.32,11.166,11.166,0,0,1,.59,3.56,10.534,10.534,0,0,1-.53,3.18h-2.33a0.635,0.635,0,0,0-.51.25,13.1,13.1,0,0,1-3.91,3.39Zm-4.16-.05a2.2,2.2,0,0,1-1.27-.29,0.787,0.787,0,0,1-.35-0.58h1.44a0.626,0.626,0,0,0,.27-0.06l2.59-1.17a3.889,3.889,0,0,1,.74.79v0.01l-2.84,1.3h-0.58Zm-5.21-5.81a0.748,0.748,0,0,1,.08-0.3,5.663,5.663,0,0,0,2.13.33h0.97a0.751,0.751,0,0,0,.26-0.05l2.77-1.26a2.583,2.583,0,0,1,1.17.76l-3.24,1.46h-2.03a3.9,3.9,0,0,1-1.67-.28A0.711,0.711,0,0,1,1277.26,1268.67Zm4.3,2.51a0.817,0.817,0,0,0,.26-0.06l2.83-1.27a3.418,3.418,0,0,1,.82.64l-3.36,1.52h-1.41a3.6,3.6,0,0,1-1.6-.27,0.644,0.644,0,0,1-.42-0.58Z" transform="translate(-1275 -1250)"/>
</svg>
