<svg xmlns="http://www.w3.org/2000/svg" width="25" height="24" viewBox="0 0 25 24">
  <metadata><?xpacket begin="﻿" id="W5M0MpCehiHzreSzNTczkc9d"?>
<x:xmpmeta xmlns:x="adobe:ns:meta/" x:xmptk="Adobe XMP Core 5.6-c138 79.159824, 2016/09/14-01:09:01        ">
   <rdf:RDF xmlns:rdf="http://www.w3.org/1999/02/22-rdf-syntax-ns#">
      <rdf:Description rdf:about=""/>
   </rdf:RDF>
</x:xmpmeta>
                                                                                                    
                                                                                                    
                                                                                                    
                                                                                                    
                                                                                                    
                                                                                                    
                                                                                                    
                                                                                                    
                                                                                                    
                                                                                                    
                                                                                                    
                                                                                                    
                                                                                                    
                                                                                                    
                                                                                                    
                                                                                                    
                                                                                                    
                                                                                                    
                                                                                                    
                                                                                                    
                           
<?xpacket end="w"?></metadata>
<defs>
    <style>
      .cls-1 {
        fill: #fff;
        fill-rule: evenodd;
      }
    </style>
  </defs>
  <path class="cls-1" d="M1686.75,1274.99a1.05,1.05,0,0,1-1.03-.82l-3.91-17.6-2.34,9.17a1.048,1.048,0,0,1-1.02.79h-4.4a1.05,1.05,0,0,1,0-2.1h3.59l3.23-12.65a1.047,1.047,0,0,1,2.04.04l3.78,17.02,1.93-9.67a1.04,1.04,0,0,1,.9-0.84,1.055,1.055,0,0,1,1.08.58l2.31,4.82h4.04a1.05,1.05,0,0,1,0,2.1h-4.7a1.041,1.041,0,0,1-.94-0.59l-1.24-2.58-2.29,11.49a1.057,1.057,0,0,1-1.02.84h-0.01Z" transform="translate(-1673 -1251)"/>
</svg>
